<mxfile host="app.diagrams.net" modified="2024-07-19T19:05:23.944Z" agent="Mozilla/5.0 (Windows NT 10.0; Win64; x64) AppleWebKit/537.36 (KHTML, like Gecko) Chrome/126.0.0.0 Safari/537.36" etag="lmmnewMGkBAv_IaWJO8H" version="24.4.6" type="github">
  <diagram name="Page-1" id="mQN49EJRc7GFGlyIFdbv">
    <mxGraphModel dx="1434" dy="738" grid="1" gridSize="10" guides="1" tooltips="1" connect="1" arrows="1" fold="1" page="1" pageScale="1" pageWidth="850" pageHeight="1100" math="0" shadow="0">
      <root>
        <mxCell id="0" />
        <mxCell id="1" parent="0" />
        <mxCell id="p7UeKknytO98iyR5Qurz-6" value="" style="group" vertex="1" connectable="0" parent="1">
          <mxGeometry x="30" y="310" width="148.75" height="46.25" as="geometry" />
        </mxCell>
        <mxCell id="p7UeKknytO98iyR5Qurz-4" value="" style="shape=cylinder3;whiteSpace=wrap;html=1;boundedLbl=1;backgroundOutline=1;size=15;rotation=90;" vertex="1" parent="p7UeKknytO98iyR5Qurz-6">
          <mxGeometry x="51.25" y="-51.25" width="46.25" height="148.75" as="geometry" />
        </mxCell>
        <mxCell id="p7UeKknytO98iyR5Qurz-5" value="PCM" style="text;html=1;align=center;verticalAlign=middle;whiteSpace=wrap;rounded=0;" vertex="1" parent="p7UeKknytO98iyR5Qurz-6">
          <mxGeometry x="32.5" y="10" width="60" height="30" as="geometry" />
        </mxCell>
        <mxCell id="p7UeKknytO98iyR5Qurz-7" value="" style="group" vertex="1" connectable="0" parent="1">
          <mxGeometry x="390" y="309.99" width="148.75" height="46.25" as="geometry" />
        </mxCell>
        <mxCell id="p7UeKknytO98iyR5Qurz-8" value="" style="shape=cylinder3;whiteSpace=wrap;html=1;boundedLbl=1;backgroundOutline=1;size=15;rotation=90;" vertex="1" parent="p7UeKknytO98iyR5Qurz-7">
          <mxGeometry x="51.25" y="-51.25" width="46.25" height="148.75" as="geometry" />
        </mxCell>
        <mxCell id="p7UeKknytO98iyR5Qurz-9" value="PCM-Synthetic" style="text;html=1;align=center;verticalAlign=middle;whiteSpace=wrap;rounded=0;" vertex="1" parent="p7UeKknytO98iyR5Qurz-7">
          <mxGeometry x="32.5" y="10" width="60" height="30" as="geometry" />
        </mxCell>
        <mxCell id="p7UeKknytO98iyR5Qurz-12" style="edgeStyle=orthogonalEdgeStyle;rounded=0;orthogonalLoop=1;jettySize=auto;html=1;" edge="1" parent="1" source="p7UeKknytO98iyR5Qurz-10" target="p7UeKknytO98iyR5Qurz-8">
          <mxGeometry relative="1" as="geometry" />
        </mxCell>
        <mxCell id="p7UeKknytO98iyR5Qurz-10" value="PCM Consumer" style="rounded=1;whiteSpace=wrap;html=1;" vertex="1" parent="1">
          <mxGeometry x="230" y="303.12" width="120" height="60" as="geometry" />
        </mxCell>
        <mxCell id="p7UeKknytO98iyR5Qurz-11" style="edgeStyle=orthogonalEdgeStyle;rounded=0;orthogonalLoop=1;jettySize=auto;html=1;entryX=0;entryY=0.5;entryDx=0;entryDy=0;" edge="1" parent="1" source="p7UeKknytO98iyR5Qurz-4" target="p7UeKknytO98iyR5Qurz-10">
          <mxGeometry relative="1" as="geometry" />
        </mxCell>
        <mxCell id="p7UeKknytO98iyR5Qurz-15" style="edgeStyle=orthogonalEdgeStyle;rounded=0;orthogonalLoop=1;jettySize=auto;html=1;entryX=0.043;entryY=0.597;entryDx=0;entryDy=0;entryPerimeter=0;" edge="1" parent="1" source="p7UeKknytO98iyR5Qurz-13" target="p7UeKknytO98iyR5Qurz-17">
          <mxGeometry relative="1" as="geometry">
            <mxPoint x="660" y="500" as="targetPoint" />
          </mxGeometry>
        </mxCell>
        <mxCell id="p7UeKknytO98iyR5Qurz-13" value="PCM Consumer" style="rounded=1;whiteSpace=wrap;html=1;" vertex="1" parent="1">
          <mxGeometry x="600" y="303.12" width="120" height="60" as="geometry" />
        </mxCell>
        <mxCell id="p7UeKknytO98iyR5Qurz-14" style="edgeStyle=orthogonalEdgeStyle;rounded=0;orthogonalLoop=1;jettySize=auto;html=1;" edge="1" parent="1" source="p7UeKknytO98iyR5Qurz-8" target="p7UeKknytO98iyR5Qurz-13">
          <mxGeometry relative="1" as="geometry" />
        </mxCell>
        <mxCell id="p7UeKknytO98iyR5Qurz-16" value="" style="group" vertex="1" connectable="0" parent="1">
          <mxGeometry x="600" y="504" width="148.75" height="46.25" as="geometry" />
        </mxCell>
        <mxCell id="p7UeKknytO98iyR5Qurz-17" value="" style="shape=cylinder3;whiteSpace=wrap;html=1;boundedLbl=1;backgroundOutline=1;size=15;rotation=90;fillColor=#f8cecc;strokeColor=#b85450;" vertex="1" parent="p7UeKknytO98iyR5Qurz-16">
          <mxGeometry x="51.25" y="-51.25" width="46.25" height="148.75" as="geometry" />
        </mxCell>
        <mxCell id="p7UeKknytO98iyR5Qurz-18" value="PCM-Synthetic - DLT" style="text;html=1;align=center;verticalAlign=middle;whiteSpace=wrap;rounded=0;" vertex="1" parent="p7UeKknytO98iyR5Qurz-16">
          <mxGeometry x="32.5" y="10" width="60" height="30" as="geometry" />
        </mxCell>
        <mxCell id="p7UeKknytO98iyR5Qurz-20" style="edgeStyle=orthogonalEdgeStyle;rounded=0;orthogonalLoop=1;jettySize=auto;html=1;entryX=0;entryY=0.5;entryDx=0;entryDy=0;entryPerimeter=0;" edge="1" parent="1" source="p7UeKknytO98iyR5Qurz-13" target="p7UeKknytO98iyR5Qurz-8">
          <mxGeometry relative="1" as="geometry">
            <Array as="points">
              <mxPoint x="660" y="270" />
              <mxPoint x="464" y="270" />
            </Array>
          </mxGeometry>
        </mxCell>
        <mxCell id="p7UeKknytO98iyR5Qurz-21" value="Retry" style="edgeLabel;html=1;align=center;verticalAlign=middle;resizable=0;points=[];" vertex="1" connectable="0" parent="p7UeKknytO98iyR5Qurz-20">
          <mxGeometry x="0.1471" y="2" relative="1" as="geometry">
            <mxPoint as="offset" />
          </mxGeometry>
        </mxCell>
        <mxCell id="p7UeKknytO98iyR5Qurz-22" value="DT Monitoring" style="ellipse;whiteSpace=wrap;html=1;aspect=fixed;" vertex="1" parent="1">
          <mxGeometry x="470" y="487.13" width="80" height="80" as="geometry" />
        </mxCell>
        <mxCell id="p7UeKknytO98iyR5Qurz-23" style="edgeStyle=orthogonalEdgeStyle;rounded=0;orthogonalLoop=1;jettySize=auto;html=1;entryX=0.5;entryY=1;entryDx=0;entryDy=0;entryPerimeter=0;" edge="1" parent="1" source="p7UeKknytO98iyR5Qurz-22" target="p7UeKknytO98iyR5Qurz-17">
          <mxGeometry relative="1" as="geometry" />
        </mxCell>
      </root>
    </mxGraphModel>
  </diagram>
</mxfile>
